<?xml version="1.0" encoding="UTF-8"?>
<svg width="30px" height="42px" viewBox="0 0 30 42" version="1.1" xmlns="http://www.w3.org/2000/svg" xmlns:xlink="http://www.w3.org/1999/xlink">
    <!-- Generator: Sketch 52.2 (67145) - http://www.bohemiancoding.com/sketch -->
    <title>logo</title>
    <desc>Created with Sketch.</desc>
    <g id="Symbols" stroke="none" stroke-width="1" fill="none" fill-rule="evenodd">
        <g id="logo" transform="translate(-1.000000, 0.000000)" fill="#4DA1FF" fill-rule="nonzero">
            <g transform="translate(15.500000, 21.500000) rotate(90.000000) translate(-15.500000, -21.500000) translate(-5.500000, 6.500000)">
                <path d="M20.7132233,9.07994855 L15.9332487,4.29451757 C10.2138906,10.020604 10.2138906,19.3037628 15.9332487,25.0298492 L20.7132233,20.2447727 C17.6337899,17.1615422 17.6337899,12.1631791 20.7132233,9.07994855 L20.7132233,9.07994855 Z" id="_Path_" fill-opacity="0.3"></path>
                <path d="M15.9353731,4.29451757 L17.8632469,6.25249784 L20.7132233,9.07994855 C22.9688142,6.82171973 26.3611986,6.1460772 29.3084517,7.36808423 C32.2557047,8.59009126 34.1773874,11.4690829 34.1773874,14.6625378 C34.1773874,17.8559928 32.2557047,20.7349844 29.3084517,21.9569914 C26.3611986,23.1789985 22.9688142,22.503356 20.7132233,20.2451271 L9.55994921,9.07994855 C6.91995168,6.43744238 2.63999753,6.43744238 7.50544114e-16,9.07994855 L15.9332487,25.0302037 C19.6201784,28.7989305 25.0451489,30.2946768 30.1397039,28.9471378 C35.2342588,27.5995989 39.2131276,23.6164832 40.5592299,18.5164905 C41.9053321,13.4164979 40.4111806,7.98573696 36.646472,4.29487202 C30.9286152,-1.43094509 21.6553543,-1.43094509 15.9353731,4.29451757 Z" id="_Path_3" fill-opacity="0.298460145"></path>
                <path d="M24.7315886,6.92382851 C28.4226398,6.17873928 32.1250392,8.14945611 33.5719786,11.6294001 C35.018918,15.1093441 33.8068012,19.1278511 30.6777513,21.2245748 C27.5487015,23.3212986 23.3755075,22.9113979 20.7132233,20.245836 L9.55994921,9.07994855 C6.91995168,6.43744238 2.63999753,6.43744238 7.50544114e-16,9.07994855 L0,9.07994855 L15.9332487,25.0302037 C21.6532298,30.7556663 30.9264908,30.7556663 36.646472,25.0302037 C36.7359342,24.9406459 36.8238621,24.8503793 36.9102558,24.7594038 C44.3301926,16.9451966 37.0012523,4.2154752 26.4838919,6.53606009 L24.7315886,6.92382851 Z" id="_Path_5"></path>
            </g>
        </g>
    </g>
</svg>