<?xml version="1.0" encoding="UTF-8"?>
<svg width="21px" height="23px" viewBox="0 0 21 23" version="1.1" xmlns="http://www.w3.org/2000/svg" xmlns:xlink="http://www.w3.org/1999/xlink">
    <!-- Generator: Sketch 52.2 (67145) - http://www.bohemiancoding.com/sketch -->
    <title>search_icon</title>
    <desc>Created with Sketch.</desc>
    <g id="search_icon" stroke="none" stroke-width="1" fill="none" fill-rule="evenodd" fill-opacity="0.61">
        <path d="M19.7730579,20.4885248 L15.4001536,15.9255455 L15.5537312,15.7217088 C16.732008,14.1578348 17.3842307,12.2392319 17.3842307,10.2216192 C17.3842307,5.29760045 13.549194,1.296 8.84268182,1.296 C4.13520594,1.296 0.3,5.29742307 0.3,10.2216192 C0.3,15.1448524 4.13536814,19.1461055 8.84268182,19.1461055 C10.6330199,19.1461055 12.3445746,18.5585149 13.7878028,17.483434 L14.0003001,17.3251419 L14.1836268,17.5164606 L18.4195003,21.9369953 C18.6030445,22.128117 18.8445898,22.2299979 19.0970205,22.2299979 C19.348424,22.2299979 19.5899447,22.1280324 19.7731695,21.9372437 C20.1548241,21.5389191 20.1548629,20.8880163 19.7730579,20.4885248 Z M2.22534757,10.2216192 C2.22534757,6.42558719 5.19115812,3.33237676 8.84268182,3.33237676 C12.493809,3.33237676 15.4577502,6.42516895 15.4577502,10.2216192 C15.4577502,14.017869 12.493999,17.1097287 8.84268182,17.1097287 C5.19096797,17.1097287 2.22534757,14.0174509 2.22534757,10.2216192 Z" id="search-icon" stroke="#FFFFFF" stroke-width="0.6" fill="#989898"></path>
    </g>
</svg>